<mxfile host="Electron" modified="2023-05-28T03:52:27.903Z" agent="Mozilla/5.0 (Windows NT 10.0; Win64; x64) AppleWebKit/537.36 (KHTML, like Gecko) draw.io/21.2.8 Chrome/112.0.5615.165 Electron/24.2.0 Safari/537.36" etag="Qg7p1hNavK0_oY4_6JEM" version="21.2.8" type="device">
  <diagram name="Page-1" id="KxpTcjFF650saeCDLNNX">
    <mxGraphModel dx="989" dy="577" grid="0" gridSize="10" guides="1" tooltips="1" connect="1" arrows="1" fold="1" page="0" pageScale="1" pageWidth="850" pageHeight="1100" math="0" shadow="0">
      <root>
        <mxCell id="0" />
        <mxCell id="1" parent="0" />
        <mxCell id="q7jTrnl94OD8NU9drNk0-9" value="Azure" style="rounded=0;whiteSpace=wrap;html=1;verticalAlign=top;fontStyle=1" parent="1" vertex="1">
          <mxGeometry x="400" y="190" width="100" height="190" as="geometry" />
        </mxCell>
        <mxCell id="q7jTrnl94OD8NU9drNk0-11" value="On Premises Emulated" style="rounded=0;whiteSpace=wrap;html=1;verticalAlign=top;fontStyle=1;align=left;" parent="1" vertex="1">
          <mxGeometry x="50" y="150" width="270" height="240" as="geometry" />
        </mxCell>
        <mxCell id="q7jTrnl94OD8NU9drNk0-12" style="edgeStyle=orthogonalEdgeStyle;rounded=0;orthogonalLoop=1;jettySize=auto;html=1;strokeWidth=2;endArrow=none;endFill=0;" parent="1" source="q7jTrnl94OD8NU9drNk0-2" target="q7jTrnl94OD8NU9drNk0-10" edge="1">
          <mxGeometry relative="1" as="geometry">
            <Array as="points">
              <mxPoint x="260" y="285" />
              <mxPoint x="260" y="285" />
            </Array>
          </mxGeometry>
        </mxCell>
        <mxCell id="q7jTrnl94OD8NU9drNk0-2" value="Iot Edge VM" style="rounded=0;whiteSpace=wrap;html=1;verticalAlign=top;fontStyle=1" parent="1" vertex="1">
          <mxGeometry x="80" y="200" width="160" height="170" as="geometry" />
        </mxCell>
        <mxCell id="q7jTrnl94OD8NU9drNk0-1" value="" style="image;aspect=fixed;html=1;points=[];align=center;fontSize=12;image=img/lib/azure2/iot/IoT_Edge.svg;" parent="1" vertex="1">
          <mxGeometry x="139" y="231" width="42" height="42" as="geometry" />
        </mxCell>
        <mxCell id="q7jTrnl94OD8NU9drNk0-3" value="IoT Hub" style="image;aspect=fixed;html=1;points=[];align=center;fontSize=12;image=img/lib/azure2/iot/IoT_Hub.svg;" parent="1" vertex="1">
          <mxGeometry x="430" y="270" width="40" height="40" as="geometry" />
        </mxCell>
        <mxCell id="q7jTrnl94OD8NU9drNk0-4" value="Root CA&lt;br style=&quot;font-size: 9px;&quot;&gt;Self Signed" style="image;sketch=0;aspect=fixed;html=1;points=[];align=left;fontSize=9;image=img/lib/mscae/Certificate.svg;labelPosition=right;verticalLabelPosition=middle;verticalAlign=middle;" parent="1" vertex="1">
          <mxGeometry x="410" y="221" width="23.81" height="20" as="geometry" />
        </mxCell>
        <mxCell id="q7jTrnl94OD8NU9drNk0-5" value="Moby" style="rounded=0;whiteSpace=wrap;html=1;" parent="1" vertex="1">
          <mxGeometry x="95" y="320" width="130" height="30" as="geometry" />
        </mxCell>
        <mxCell id="q7jTrnl94OD8NU9drNk0-6" value="Edge&lt;br&gt;Hub" style="rounded=0;whiteSpace=wrap;html=1;" parent="1" vertex="1">
          <mxGeometry x="95" y="280" width="65" height="40" as="geometry" />
        </mxCell>
        <mxCell id="q7jTrnl94OD8NU9drNk0-8" value="Edge&lt;br&gt;Agent" style="rounded=0;whiteSpace=wrap;html=1;" parent="1" vertex="1">
          <mxGeometry x="160" y="280" width="65" height="40" as="geometry" />
        </mxCell>
        <mxCell id="q7jTrnl94OD8NU9drNk0-17" style="edgeStyle=orthogonalEdgeStyle;rounded=0;orthogonalLoop=1;jettySize=auto;html=1;endArrow=none;endFill=0;strokeWidth=2;" parent="1" source="q7jTrnl94OD8NU9drNk0-10" target="q7jTrnl94OD8NU9drNk0-15" edge="1">
          <mxGeometry relative="1" as="geometry" />
        </mxCell>
        <mxCell id="q7jTrnl94OD8NU9drNk0-10" value="NSG&lt;br&gt;Firewall&lt;br&gt;(Outbound)" style="image;html=1;image=img/lib/clip_art/networking/Firewall_02_128x128.png" parent="1" vertex="1">
          <mxGeometry x="270" y="270" width="30" height="30" as="geometry" />
        </mxCell>
        <mxCell id="q7jTrnl94OD8NU9drNk0-15" value="Internet" style="image;aspect=fixed;perimeter=ellipsePerimeter;html=1;align=center;shadow=0;dashed=0;spacingTop=3;image=img/lib/active_directory/internet_cloud.svg;" parent="1" vertex="1">
          <mxGeometry x="340" y="275" width="31.75" height="20" as="geometry" />
        </mxCell>
        <mxCell id="q7jTrnl94OD8NU9drNk0-18" style="edgeStyle=orthogonalEdgeStyle;rounded=0;orthogonalLoop=1;jettySize=auto;html=1;endArrow=none;endFill=0;strokeWidth=2;exitX=1;exitY=0.5;exitDx=0;exitDy=0;" parent="1" source="q7jTrnl94OD8NU9drNk0-15" target="q7jTrnl94OD8NU9drNk0-9" edge="1">
          <mxGeometry relative="1" as="geometry">
            <mxPoint x="310" y="295" as="sourcePoint" />
            <mxPoint x="350" y="295" as="targetPoint" />
          </mxGeometry>
        </mxCell>
        <mxCell id="q7jTrnl94OD8NU9drNk0-19" value="Device Cert&lt;br&gt;Thumbprint" style="image;sketch=0;aspect=fixed;html=1;points=[];align=left;fontSize=9;image=img/lib/mscae/Certificate.svg;labelPosition=right;verticalLabelPosition=middle;verticalAlign=middle;" parent="1" vertex="1">
          <mxGeometry x="200.00000000000003" y="241" width="23.81" height="20" as="geometry" />
        </mxCell>
        <mxCell id="jNvM5EhHAKwpxObRsWaS-2" value="" style="image;sketch=0;aspect=fixed;html=1;points=[];align=center;fontSize=12;image=img/lib/mscae/VM_Linux.svg;" vertex="1" parent="1">
          <mxGeometry x="90" y="190" width="21.74" height="20" as="geometry" />
        </mxCell>
        <mxCell id="jNvM5EhHAKwpxObRsWaS-4" value="Intermediate CA" style="image;sketch=0;aspect=fixed;html=1;points=[];align=left;fontSize=9;image=img/lib/mscae/Certificate.svg;labelPosition=right;verticalLabelPosition=middle;verticalAlign=middle;" vertex="1" parent="1">
          <mxGeometry x="223.81000000000003" y="160" width="23.81" height="20" as="geometry" />
        </mxCell>
      </root>
    </mxGraphModel>
  </diagram>
</mxfile>
